<svg width="48" height="48" viewBox="0 0 48 48" fill="none" xmlns="http://www.w3.org/2000/svg">
<path fill-rule="evenodd" clip-rule="evenodd" d="M12 12C14.7614 12 17 9.76142 17 7C17 4.23858 14.7614 2 12 2C9.23858 2 7 4.23858 7 7C7 9.76142 9.23858 12 12 12ZM19 7C19 10.5265 16.3923 13.4439 13 13.9291V17.0709C16.3923 17.5561 19 20.4735 19 24C19 27.5265 16.3923 30.4439 13 30.9291V34.0709C16.3923 34.5561 19 37.4735 19 41C19 44.866 15.866 48 12 48C8.13401 48 5 44.866 5 41C5 37.4735 7.60771 34.5561 11 34.0709V30.9291C7.60771 30.4439 5 27.5265 5 24C5 20.4735 7.60771 17.5561 11 17.0709V13.9291C7.60771 13.4439 5 10.5265 5 7C5 3.13401 8.13401 0 12 0C15.866 0 19 3.13401 19 7ZM12 29C14.7614 29 17 26.7614 17 24C17 21.2386 14.7614 19 12 19C9.23858 19 7 21.2386 7 24C7 26.7614 9.23858 29 12 29ZM43 4H23V6H43V4ZM23 8H32V10H23V8ZM43 21H23V23H43V21ZM23 25H33V27H23V25ZM43 40V38H23V40H43ZM23 42H33V44H23V42ZM10.8 10.381L15.6897 5.72414L14.3103 4.27586L10.8 7.61905L9.68966 6.56158L8.31034 8.00985L10.8 10.381ZM15.6897 22.7241L10.8 27.381L8.31034 25.0099L9.68966 23.5616L10.8 24.619L14.3103 21.2759L15.6897 22.7241ZM17 41C17 43.7614 14.7614 46 12 46C9.23858 46 7 43.7614 7 41C7 38.2386 9.23858 36 12 36C14.7614 36 17 38.2386 17 41Z" fill="currentColor"/>
</svg>
